<svg xmlns="http://www.w3.org/2000/svg" width="24" height="24" fill="none"><path fill="#2A2941" d="M12 1.5a10.5 10.5 0 1 0 0 21 10.5 10.5 0 0 0 0-21Zm-1.883 1.703c.12.232.24.45.368.675.57 1.02 1.072 1.897.75 3.074-.127.51-.75.75-1.605 1.05a3.24 3.24 0 0 0-1.605.923 3.232 3.232 0 0 0-.323 3c.143.555.226.9.075 1.125-.15.225-.112.135-.51.188a2.954 2.954 0 0 0-2.25 1.274 3.96 3.96 0 0 0-.697 2.13A8.888 8.888 0 0 1 3 12a9 9 0 0 1 7.117-8.797ZM5.933 18.63c-.12-.848-.307-2.377.293-3.18a1.5 1.5 0 0 1 1.275-.69 1.965 1.965 0 0 0 1.5-.848 2.73 2.73 0 0 0 .12-2.332c-.195-.75-.3-1.252.075-1.755.286-.178.597-.312.922-.397.953-.323 2.25-.75 2.58-2.13.42-1.748-.3-3-.937-4.163L11.723 3H12c1.697 0 3.36.485 4.793 1.395a16.304 16.304 0 0 1-2.82 3.3c-1.036.938-.278 2.018.224 2.73A3.002 3.002 0 0 1 15 12.622a1.26 1.26 0 0 0 .315 1.193 1.597 1.597 0 0 0 1.56.128 3.79 3.79 0 0 1 .547-.113c.083.285-.075.518-.75 1.14-.675.622-1.567 1.463-1.297 2.805A2.814 2.814 0 0 0 16.8 19.59a8.94 8.94 0 0 1-10.867-.96Zm12.15 0-.292-.188c-.525-.314-.848-.54-.93-.952-.082-.412.188-.787.855-1.41.668-.622 1.598-1.5 1.102-2.827-.457-1.208-1.717-.9-2.287-.75a4.635 4.635 0 0 0-1.103-2.925 2.842 2.842 0 0 1-.45-.75 17.483 17.483 0 0 0 3-3.503 8.963 8.963 0 0 1 .09 13.313l.015-.008Z"/></svg>